<svg width="1920" height="192" viewBox="0 0 1920 192" fill="none" xmlns="http://www.w3.org/2000/svg">
<g clip-path="url(#clip0_1_2)">
<path opacity="0.25" d="M1920 192V117.936C1843.54 82.416 1754.26 66.464 1667.2 73.136C1554.62 81.728 1449.07 126.432 1336.32 133.136C1218.18 140.112 1100.26 106.128 987.2 76.72C876.368 47.92 765.92 36.912 652.16 55.792C594.32 65.392 540.4 84.336 485.04 102.736C336.816 152 139.2 214.864 -2.86102e-05 108.048V192L1920 192Z" fill="#BDFF00"/>
<path opacity="0.5" d="M1920 192V166.704C1899.2 132.928 1875.78 101.024 1843.7 76.72C1760.94 13.968 1656 14.4 1560.67 45.472C1510.83 61.712 1464.53 87.184 1417.2 109.152C1351.73 139.552 1281.63 182.752 1207.87 188.624C1149.86 193.184 1094.43 173.552 1050.11 138.128C999.28 97.504 950.4 38.928 884.304 21.328C819.6 4.064 754.144 32.032 693.696 60.176C633.248 88.32 573.44 122.576 506.624 129.056C411.056 138.416 325.376 92.448 236.384 66.912C188.064 53.056 141.984 57.04 97.04 78.912C61.152 96.336 20.24 122 -2.86102e-05 157.696V192L1920 192Z" fill="#BDFF00"/>
<path d="M1920 192V182.992C1680.11 97.6 1417.46 77.888 1158.67 123.888C1089.87 136.112 1023.9 156.08 954.496 166.224C860.096 180.032 774.528 146.64 689.6 109.584C595.312 68.448 502.4 39.616 398.08 48C259.632 59.2 122.144 121.136 -2.86102e-05 183.696V192L1920 192Z" fill="#BDFF00"/>
</g>
<defs>
<clipPath id="clip0_1_2">
<rect width="1920" height="192" fill="white" transform="translate(1920 192) rotate(-180)"/>
</clipPath>
</defs>
</svg>
